Coordinates
version=1
nRows=11
nColumns=40
inDegrees=yes

Units are S.I. units (second, meters, Newtons, ...)
Angles are in degrees.

endheader
time	pelvis_tilt	pelvis_list	pelvis_rotation	pelvis_tx	pelvis_ty	pelvis_tz	hip_flexion_r	hip_adduction_r	hip_rotation_r	knee_angle_r	knee_angle_r_beta	ankle_angle_r	subtalar_angle_r	mtp_angle_r	hip_flexion_l	hip_adduction_l	hip_rotation_l	knee_angle_l	knee_angle_l_beta	ankle_angle_l	subtalar_angle_l	mtp_angle_l	lumbar_extension	lumbar_bending	lumbar_rotation	arm_flex_r	arm_add_r	arm_rot_r	elbow_flex_r	pro_sup_r	wrist_flex_r	wrist_dev_r	arm_flex_l	arm_add_l	arm_rot_l	elbow_flex_l	pro_sup_l	wrist_flex_l	wrist_dev_l
      0.00000000	      3.49407322	     -2.04032596	      1.57803388	     -1.04805179	      0.89831536	      1.01043492	     -4.80877532	      3.82095071	    -18.04831079	    -18.72001917	     -0.32672597	     11.63990538	      2.46922843	     -5.60444052	     19.04076311	      2.86704782	      8.22675366	    -32.60229886	     -0.56901746	      5.51419492	      1.17481209	    -12.00291839	    -11.65883759	      2.56704461	      7.52098856	     18.51135519	    -14.64745259	     17.77334834	     19.67901816	     89.95437384	      0.00000000	      0.00000000	     -0.60443060	      9.50120822	    -10.33381797	     23.47022690	     89.95437384	      0.00000000	      0.00000000
      0.01000000	      3.36561690	     -2.02124312	      1.59587550	     -1.04200236	      0.89767211	      1.01018890	     -5.09039932	      3.81684576	    -17.86225421	    -18.74918798	     -0.32723506	     11.86515416	      2.36293884	     -5.59127605	     19.46265890	      2.66132287	      8.26759787	    -30.68948877	     -0.53563262	      4.72748757	      0.79788452	    -11.81740317	    -11.60042919	      2.51981725	      7.53225584	     18.84188420	    -14.60473499	     17.77571487	     20.18439428	     89.95437384	      0.00000000	      0.00000000	     -0.77501797	      9.35300881	    -10.48703889	     23.51774494	     89.95437384	      0.00000000	      0.00000000
      0.02000000	      3.09129745	     -2.10811382	      1.57591756	     -1.03597211	      0.89674211	      1.01003111	     -5.14978714	      3.90964420	    -17.71360873	    -18.89123371	     -0.32971423	     11.94732341	      2.30741870	     -5.55750787	     20.01011339	      2.58180893	      8.23135714	    -28.83595787	     -0.50328241	      4.01880596	      0.51584924	    -11.55349759	    -11.39718265	      2.56266487	      7.61253107	     19.05755268	    -14.59224472	     17.73801708	     20.82617535	     89.95437384	      0.00000000	      0.00000000	     -0.93580087	      9.14881188	    -10.29160329	     23.60513643	     89.95437384	      0.00000000	      0.00000000
      0.03000000	      2.82971385	     -2.31156390	      1.63727230	     -1.02971774	      0.89563919	      1.00980449	     -5.27975048	      4.11174187	    -17.84177352	    -18.95793691	     -0.33087842	     12.08170737	      2.22286037	     -5.52923249	     20.71241074	      2.74387054	      8.60478722	    -27.46811533	     -0.47940905	      3.81773127	      0.49342161	    -11.35745693	    -11.14780468	      2.76049300	      7.49915309	     19.34968594	    -14.47104536	     17.71988983	     21.27673981	     89.95437384	      0.00000000	      0.00000000	     -1.16588328	      8.95797115	    -10.34864862	     23.56832239	     89.95437384	      0.00000000	      0.00000000
      0.04000000	      2.60003700	     -2.28129149	      1.48660618	     -1.02367049	      0.89488786	      1.00964938	     -5.36215240	      4.05330061	    -17.48304398	    -19.14874510	     -0.33420865	     12.20334564	      2.16716787	     -5.50939421	     20.92637200	      2.51364506	      8.30918750	    -25.31969887	     -0.44191211	      2.77736660	      0.06400839	    -11.06004062	    -11.04213805	      2.65734298	      7.72437913	     19.46410974	    -14.46561139	     17.70301108	     21.96797920	     89.95437384	      0.00000000	      0.00000000	     -1.26554111	      8.72013387	    -10.19804590	     23.61921433	     89.95437384	      0.00000000	      0.00000000
      0.05000000	      2.63325559	     -2.13429439	      1.43333605	     -1.01717626	      0.89440233	      1.00922919	     -5.81799915	      3.85155625	    -17.35889727	    -19.27399777	     -0.33639472	     12.39833329	      2.02553705	     -5.50990099	     20.87613446	      2.27537747	      8.71704915	    -23.42495876	     -0.40884266	      2.08147459	     -0.07140408	    -10.81522897	    -11.16980096	      2.46560936	      7.69443000	     19.65229151	    -14.34803487	     17.70420538	     22.57160031	     89.95437384	      0.00000000	      0.00000000	     -1.36245478	      8.50824380	    -10.27211288	     23.41406752	     89.95437384	      0.00000000	      0.00000000
      0.06000000	      2.44010201	     -2.30345185	      1.44926585	     -1.01068888	      0.89339585	      1.00888439	     -6.03399715	      4.00636448	    -17.41999624	    -19.33670531	     -0.33748917	     12.45175804	      2.00730021	     -5.49454047	     21.31585498	      2.42510891	      9.14367061	    -22.13074089	     -0.38625429	      2.00374398	     -0.04941675	    -10.66216814	    -11.01712630	      2.62296537	      7.61306738	     19.82173475	    -14.18406814	     17.69996663	     22.98280807	     89.95437384	      0.00000000	      0.00000000	     -1.54261122	      8.29038870	    -10.34867242	     23.33207016	     89.95437384	      0.00000000	      0.00000000
      0.07000000	      2.41748774	     -2.20045906	      1.25812012	     -1.00422322	      0.89288917	      1.00847691	     -6.38929624	      3.82075532	    -17.07341595	    -19.51330439	     -0.34057141	     12.46958886	      2.04376745	     -5.50222061	     21.14297538	      2.22812789	      9.48609323	    -20.19519953	     -0.35247272	      1.32774297	     -0.12350459	    -10.40778527	    -11.13183029	      2.46426091	      7.73309629	     19.90597557	    -14.10462161	     17.65085582	     23.66515276	     89.95437384	      0.00000000	      0.00000000	     -1.58081946	      8.01115822	    -10.20468372	     23.13320631	     89.95437384	      0.00000000	      0.00000000
      0.08000000	      2.35272617	     -2.22291589	      1.16950389	     -0.99753965	      0.89219513	      1.00814119	     -6.73103433	      3.78383129	    -16.95240229	    -19.63516004	     -0.34269819	     12.47580754	      2.07663750	     -5.51550317	     21.16517823	      2.23077144	      9.87901268	    -18.74238732	     -0.32711637	      1.00864853	     -0.11736478	    -10.21784607	    -11.14796893	      2.43447991	      7.73791718	     19.97064217	    -13.93175088	     17.63576697	     24.13872512	     89.95437384	      0.00000000	      0.00000000	     -1.66944698	      7.79924321	    -10.17919739	     22.97006351	     89.95437384	      0.00000000	      0.00000000
      0.09000000	      2.30396132	     -2.20185616	      1.05376085	     -0.99076790	      0.89149667	      1.00767633	     -7.08851781	      3.67718995	    -16.81692905	    -19.77527646	     -0.34514368	     12.49500769	      2.12878702	     -5.55105522	     21.09736194	      2.18625698	     10.26906570	    -17.34206067	     -0.30267606	      0.53433122	     -0.14997299	    -10.00264902	    -11.17610084	      2.37547173	      7.71894874	     20.04478406	    -13.72665360	     17.62472476	     24.56054437	     89.95437384	      0.00000000	      0.00000000	     -1.80395648	      7.59184471	    -10.40362104	     22.75923628	     89.95437384	      0.00000000	      0.00000000
      0.10000000	      2.07032903	     -2.38004073	      1.10487152	     -0.98401608	      0.89042173	      1.00705086	     -7.23248682	      3.79980173	    -16.86991569	    -19.93586020	     -0.34794640	     12.52759554	      2.08314774	     -5.53118604	     21.46703835	      2.36280347	     10.59185725	    -16.58324917	     -0.28943230	      0.62315090	     -0.16397667	     -9.89240081	    -10.99566995	      2.55761839	      7.51068363	     20.10729174	    -13.48459801	     17.62699119	     24.86361922	     89.95437384	      0.00000000	      0.00000000	     -1.98286178	      7.41538113	    -10.46852179	     22.63257743	     89.95437384	      0.00000000	      0.00000000
